<?xml version="1.0" standalone="no"?><!DOCTYPE svg PUBLIC "-//W3C//DTD SVG 1.1//EN" "http://www.w3.org/Graphics/SVG/1.1/DTD/svg11.dtd"><svg class="icon" width="60px" height="60.00px" viewBox="0 0 1024 1024" version="1.1" xmlns="http://www.w3.org/2000/svg"><path fill="#ffffff" d="M518.957459 556.757367l-13.900591 0c-11.525498 0-20.856004 9.342786-20.871353 20.856004l0 97.320513c0 11.513218 9.331529 20.856004 20.857027 20.856004l13.904685 0c11.524474 0 20.866237-9.342786 20.866237-20.856004l0-97.320513C539.813462 566.099129 530.4717 556.757367 518.957459 556.757367zM776.157285 504.597403c-0.11768-37.684274-30.636764-68.232011-68.49193-68.774363l0-26.980491c0-110.316501-90.320075-195.666378-195.665355-195.666378-106.691951 0-195.666378 88.977497-195.666378 195.666378l0 26.980491c-37.854143 0.542352-68.373227 31.089066-68.49193 68.774363l-0.005117 0 0 237.208517c0 38.125319 31.116695 69.01791 69.51626 69.01791l389.292284 0c38.400588 0 69.517283-30.893614 69.517283-69.01791l0-19.200294L776.162402 504.815367l0-0.217964L776.157285 504.597403zM512 261.502829c73.293283 0 138.142244 60.483536 138.142244 138.145313l0 36.149315L373.854687 435.797457l0-36.149315C373.854687 324.531328 436.892395 261.502829 512 261.502829zM717.870788 732.97581c0 13.933337-11.529591 25.270547-25.735128 25.270547L331.863317 758.246357c-14.19121 0-25.734104-11.337209-25.734104-25.270547l0-17.772782 0 0L306.129212 513.645476c0-13.933337 11.542894-25.270547 25.734104-25.270547l360.272343 0c14.205537 0 25.734104 11.335163 25.735128 25.267477L717.870788 732.97581z" /></svg>